HIERARCHY
ROOT Hips
{
	OFFSET 0.00000 0.00000 0.00000
	CHANNELS 6 Xposition Yposition Zposition Zrotation Yrotation Xrotation 
	JOINT LHipJoint
	{
		OFFSET 0 0 0
		CHANNELS 3 Zrotation Yrotation Xrotation
		JOINT LeftHip
		{
			OFFSET 1.58895 -1.83665 0.71753
			CHANNELS 3 Zrotation Yrotation Xrotation
			JOINT LeftKnee
			{
				OFFSET 2.50528 -6.88321 0.00000
				CHANNELS 3 Zrotation Yrotation Xrotation
				JOINT LeftAnkle
				{
					OFFSET 2.63244 -7.23257 0.00000
					CHANNELS 3 Zrotation Yrotation Xrotation
					JOINT LeftToe
					{
						OFFSET 0.23691 -0.65090 1.72750
						CHANNELS 3 Zrotation Yrotation Xrotation
						End Site
						{
							OFFSET 0.00000 -0.00000 0.92561
						}
					}
				}
			}
		}
	}
	JOINT RHipJoint
	{
		OFFSET 0 0 0
		CHANNELS 3 Zrotation Yrotation Xrotation
		JOINT RightHip
		{
			OFFSET -1.51435 -1.83665 0.71753
			CHANNELS 3 Zrotation Yrotation Xrotation
			JOINT RightKnee
			{
				OFFSET -2.54551 -6.99375 0.00000
				CHANNELS 3 Zrotation Yrotation Xrotation
				JOINT RightAnkle
				{
					OFFSET -2.66027 -7.30903 0.00000
					CHANNELS 3 Zrotation Yrotation Xrotation
					JOINT RightToe
					{
						OFFSET -0.22981 -0.63138 2.03959
						CHANNELS 3 Zrotation Yrotation Xrotation
						End Site
						{
							OFFSET -0.00000 -0.00000 1.07060
						}
					}
				}
			}
		}
	}
	JOINT lowerback
	{
		OFFSET 0 0 0
		CHANNELS 3 Zrotation Yrotation Xrotation
		JOINT Chest
		{
			OFFSET -0.02651 1.86275 -0.11152
			CHANNELS 3 Zrotation Yrotation Xrotation
			JOINT Chest2
			{
				OFFSET 0.01019 1.86224 0.04087
				CHANNELS 3 Zrotation Yrotation Xrotation
				JOINT lowerneck
				{
					OFFSET 0 0 0
					CHANNELS 3 Zrotation Yrotation Xrotation
					JOINT Neck
					{
						OFFSET -0.01926 1.80512 0.08867
						CHANNELS 3 Zrotation Yrotation Xrotation
						JOINT Head
						{
							OFFSET 0.05516 1.76451 -0.38475
							CHANNELS 3 Zrotation Yrotation Xrotation
							End Site
							{
								OFFSET 0.01592 1.82587 -0.14001
							}
						}
					}
				}
				JOINT LeftCollar
				{
					OFFSET 0 0 0
					CHANNELS 3 Zrotation Yrotation Xrotation
					JOINT LeftShoulder
					{
						OFFSET 3.47116 1.51376 0.14491
CHANNELS 3 Zrotation Xrotation Yrotation
						JOINT LeftElbow
						{
OFFSET 0 -4.780950 0.000000
CHANNELS 3 Zrotation Xrotation Yrotation
							JOINT LeftWrist
							{
OFFSET 0 -3.586150 -0.000000
CHANNELS 3 Zrotation Xrotation Yrotation
								JOINT lhand
								{
									OFFSET 0 0 0
CHANNELS 3 Zrotation Xrotation Yrotation
									JOINT LFingers
									{
OFFSET 0 -0.659810 0.000000
CHANNELS 3 Zrotation Xrotation Yrotation
										End Site
										{
OFFSET 0 -0.531960 0.000000
										}
									}
								}
								JOINT LThumb
								{
OFFSET 0 0.000000 0.000000
CHANNELS 3 Zrotation Xrotation Yrotation
									End Site
									{
OFFSET 0 -0.540080 0.540080
									}
								}
							}
						}
					}
				}
				JOINT RightCollar
				{
					OFFSET 0 0 0
					CHANNELS 3 Zrotation Yrotation Xrotation
					JOINT RightShoulder
					{
						OFFSET -3.31725 1.61216 0.35156
CHANNELS 3 Zrotation Xrotation Yrotation
						JOINT RightElbow
						{
OFFSET 0 -4.489130 0.000000
CHANNELS 3 Zrotation Xrotation Yrotation
							JOINT RightWrist
							{
OFFSET 0 -3.705100 0.000000
CHANNELS 3 Zrotation Xrotation Yrotation
								JOINT rhand
								{
									OFFSET 0 0 0
CHANNELS 3 Zrotation Xrotation Yrotation
									JOINT RFingers
									{
OFFSET 0 -0.449140 0.000000
CHANNELS 3 Zrotation Xrotation Yrotation
										End Site
										{
OFFSET 0 -0.362110 0.000000
										}
									}
								}
								JOINT RThumb
								{
OFFSET 0 0.000000 0.000000
CHANNELS 3 Zrotation Xrotation Yrotation
									End Site
									{
OFFSET 0 -0.367630 0.367630
									}
								}
							}
						}
					}
				}
			}
		}
	}
}
MOTION
Frames: 4
Frame Time: 0.008333333333333333
-0.739100 18.698000 5.971200 1.618200 2.481100 1.105300 0.000000 0.000000 0.000000 -16.174300 -7.833200 -1.381600 1.059300 6.544000 18.371100 1.071100 2.285600 -20.498700 8.803800 -16.679800 -55.409100 0.000000 0.000000 0.000000 0.000000 0.000000 0.000000 0.000000 0.000000 0.000000 -0.000000 -0.000000 0.000000 -0.000000 -0.000000 0.000000 -2.329600 0.434200 3.752600 0.078700 0.455600 -1.884900 1.354800 0.290500 -4.068900 -1.451600 -1.651000 -12.282200 0.695200 -2.235000 31.229300 0.204900 -1.068900 12.368500 -0.000000 0.000000 0.000000 -3.947100 10.803900 -28.598200 20.087000 -30.747100 5.575800 4.068500 12.613100 26.961200 0.000000 0.000000 0.000000 -7.125000 0.000000 0.000000 -15.471800 3.780800 -14.984700 -0.000000 0.000000 0.000000 0.076100 16.080200 28.713600 -23.341500 -34.460100 -7.330600 -3.595700 23.189100 34.584500 0.000000 0.000000 0.000000 7.125000 0.000000 -0.000000 34.572100 61.187600 -14.606700
-0.735798 18.699347 5.964946 1.637505 2.471685 1.132647 0.000000 0.000000 0.000000 -16.197856 -7.835827 -1.423204 1.058485 6.541367 18.363491 1.068080 2.276637 -20.467170 8.778924 -16.663342 -55.322416 0.000000 0.000000 0.000000 0.000000 0.000000 0.000000 0.000000 0.000000 0.000000 0.000000 0.000000 0.000000 0.000000 0.000000 0.000000 -2.330276 0.436567 3.827666 0.078781 0.456391 -1.911806 1.354754 0.291906 -4.139446 -1.424141 -1.670564 -12.324946 0.639263 -2.252914 31.266212 0.175819 -1.080678 12.391687 0.000000 0.000000 0.000000 -4.085609 10.569060 -28.147251 19.867266 -30.482065 5.463810 4.010024 13.044668 27.087545 0.000000 0.000000 0.000000 -7.125000 0.000000 0.000000 -15.506461 3.664186 -15.055603 0.000000 0.000000 0.000000 0.071326 16.091383 28.702313 -23.326858 -34.444290 -7.322303 -3.552334 23.202035 34.347700 0.000000 0.000000 0.000000 7.125000 0.000000 0.000000 34.362149 60.983921 -14.338174
-0.731550 18.700189 5.958614 1.735601 2.431070 1.172090 0.000000 0.000000 0.000000 -16.323061 -7.876425 -1.443141 1.055082 6.531245 18.333713 1.068111 2.396673 -20.523268 8.806555 -16.681607 -55.418537 0.000000 0.000000 0.000000 0.000000 0.000000 0.000000 0.000000 0.000000 0.000000 0.000000 0.000000 0.000000 0.000000 0.000000 0.000000 -2.387204 0.433462 3.792686 0.041672 0.448798 -1.901383 1.349177 0.288653 -4.108684 -1.440445 -1.640028 -12.354619 0.712648 -2.227940 31.303088 0.209788 -1.061823 12.413918 0.000000 0.000000 0.000000 -3.897444 10.759145 -28.702682 20.105141 -30.768782 5.585094 4.094285 12.558581 26.854992 0.000000 0.000000 0.000000 -7.125000 0.000000 0.000000 -15.456369 3.880808 -14.938903 0.000000 0.000000 0.000000 0.125431 16.043315 28.643192 -23.301012 -34.416393 -7.307750 -3.653537 23.346917 34.087054 0.000000 0.000000 0.000000 7.125000 0.000000 0.000000 33.987338 60.795029 -14.006334
-0.729160 18.699848 5.955121 1.753153 2.469832 1.170165 0.000000 0.000000 0.000000 -16.329784 -7.789763 -1.493658 1.052760 6.524365 18.313578 1.063069 2.263034 -20.414816 8.797194 -16.675463 -55.386154 0.000000 0.000000 0.000000 0.000000 0.000000 0.000000 0.000000 0.000000 0.000000 0.000000 0.000000 0.000000 0.000000 0.000000 0.000000 -2.401292 0.404431 3.807440 0.058134 0.409548 -1.893768 1.376876 0.269758 -4.107842 -1.442027 -1.617692 -12.403880 0.664999 -2.179495 31.334411 0.198198 -1.046308 12.435815 0.000000 0.000000 0.000000 -3.892558 10.834779 -28.807644 20.207177 -30.891192 5.637322 4.083240 12.458427 26.794873 0.000000 0.000000 0.000000 -7.125000 0.000000 0.000000 -15.462647 3.939674 -14.927999 0.000000 0.000000 0.000000 0.098760 16.003347 28.698961 -23.283009 -34.396849 -7.297542 -3.767910 23.304634 34.156506 0.000000 0.000000 0.000000 7.125000 0.000000 0.000000 33.946783 60.879617 -14.056154
